<svg xmlns="http://www.w3.org/2000/svg" xmlns:xlink="http://www.w3.org/1999/xlink" version="1.1" width="63" height="63" viewBox="0 0 1000 1000" xml:space="preserve">
<desc>Created with Fabric.js 3.5.0</desc>
<defs>
</defs>
<rect x="0" y="0" width="100%" height="100%" fill="#ffffff"/>
<g transform="matrix(14.43 0 0 14.43 499.4995 499.4995)" id="748353">
<circle style="stroke: none; stroke-width: 0; stroke-dasharray: none; stroke-linecap: butt; stroke-dashoffset: 0; stroke-linejoin: miter; stroke-miterlimit: 4; is-custom-font: none; font-file-url: none; fill: rgb(97,41,153); fill-rule: nonzero; opacity: 1;" vector-effect="non-scaling-stroke" cx="0" cy="0" r="31.5"/>
</g>
<g transform="matrix(15.3506 0 0 15.3506 499.9995 499.9995)" id="397373">
<g style="" vector-effect="non-scaling-stroke">
		<g transform="matrix(1 0 0 1 0 -0.0001)" id="Vector">
<path style="stroke: none; stroke-width: 1; stroke-dasharray: none; stroke-linecap: butt; stroke-dashoffset: 0; stroke-linejoin: miter; stroke-miterlimit: 4; is-custom-font: none; font-file-url: none; fill: rgb(255,255,255); fill-rule: nonzero; opacity: 1;" transform=" translate(-15.5, -15.5)" d="M 28.6459 10.9915 H 27.5429 L 22.6043 1.67689 C 22.3693 1.23368 21.8195 1.06506 21.3763 1.2998 C 20.9331 1.53478 20.7643 2.08455 20.9993 2.52775 L 25.4868 10.9914 H 5.64497 L 10.1325 2.52775 C 10.3674 2.08455 10.1986 1.53478 9.75543 1.2998 C 9.31229 1.06488 8.76247 1.23368 8.52748 1.67689 L 3.58892 10.9915 H 2.35412 C 1.05606 10.9915 0 12.0476 0 13.3457 C 0 14.6437 1.05606 15.6998 2.35412 15.6998 H 2.41945 C 2.42145 15.7127 2.42296 15.7258 2.42527 15.7387 L 4.31941 26.3595 C 4.67561 28.3566 6.40646 29.8061 8.43503 29.8061 H 22.6966 C 24.7252 29.8061 26.4561 28.3566 26.8122 26.3595 L 28.7064 15.7387 C 28.7088 15.7252 28.7104 15.7117 28.7125 15.6982 C 29.9798 15.6626 30.9999 14.6214 30.9999 13.3457 C 31 12.0475 29.9439 10.9915 28.6459 10.9915 Z M 25.024 26.0406 C 24.8226 27.1699 23.8438 27.9896 22.6967 27.9896 H 8.43509 C 7.28797 27.9896 6.30923 27.17 6.10779 26.0406 L 4.26365 15.6998 H 26.8682 L 25.024 26.0406 Z M 28.6459 13.8832 H 2.35412 C 2.05769 13.8832 1.81659 13.6421 1.81659 13.3457 C 1.81659 13.0492 2.05769 12.8081 2.35412 12.8081 H 28.6459 C 28.9423 12.8081 29.1834 13.0492 29.1834 13.3457 C 29.1834 13.6421 28.9423 13.8832 28.6459 13.8832 Z" stroke-linecap="round"/>
</g>
		<g transform="matrix(1 0 0 1 -0.0393 6.3447)" id="Vector_2">
<path style="stroke: none; stroke-width: 1; stroke-dasharray: none; stroke-linecap: butt; stroke-dashoffset: 0; stroke-linejoin: miter; stroke-miterlimit: 4; is-custom-font: none; font-file-url: none; fill: rgb(255,255,255); fill-rule: nonzero; opacity: 1;" transform=" translate(-15.4608, -21.8447)" d="M 15.4608 16.96 C 14.9591 16.96 14.5525 17.3667 14.5525 17.8682 V 25.8211 C 14.5525 26.3227 14.9592 26.7294 15.4608 26.7294 C 15.9624 26.7294 16.369 26.3227 16.369 25.8211 V 17.8682 C 16.369 17.3666 15.9624 16.96 15.4608 16.96 Z" stroke-linecap="round"/>
</g>
		<g transform="matrix(1 0 0 1 -4.7035 6.3447)" id="Vector_3">
<path style="stroke: none; stroke-width: 1; stroke-dasharray: none; stroke-linecap: butt; stroke-dashoffset: 0; stroke-linejoin: miter; stroke-miterlimit: 4; is-custom-font: none; font-file-url: none; fill: rgb(255,255,255); fill-rule: nonzero; opacity: 1;" transform=" translate(-10.7965, -21.8447)" d="M 12.3619 25.6704 L 11.0224 17.7175 C 10.9391 17.2227 10.47 16.8892 9.97581 16.9726 C 9.48114 17.0559 9.14771 17.5245 9.23102 18.0192 L 10.5706 25.9721 C 10.6453 26.4157 11.0299 26.7296 11.4651 26.7296 C 11.5153 26.7296 11.5661 26.7255 11.6171 26.7169 C 12.1118 26.6336 12.4452 26.165 12.3619 25.6704 Z" stroke-linecap="round"/>
</g>
		<g transform="matrix(1 0 0 1 4.5616 6.3447)" id="Vector_4">
<path style="stroke: none; stroke-width: 1; stroke-dasharray: none; stroke-linecap: butt; stroke-dashoffset: 0; stroke-linejoin: miter; stroke-miterlimit: 4; is-custom-font: none; font-file-url: none; fill: rgb(255,255,255); fill-rule: nonzero; opacity: 1;" transform=" translate(-20.0616, -21.8448)" d="M 20.8822 16.9726 C 20.3881 16.8897 19.9191 17.2227 19.8357 17.7175 L 18.4961 25.6704 C 18.4129 26.165 18.7463 26.6335 19.241 26.7169 C 19.292 26.7255 19.3428 26.7296 19.3929 26.7296 C 19.8282 26.7296 20.2128 26.4157 20.2874 25.9721 L 21.627 18.0192 C 21.7104 17.5245 21.3769 17.0559 20.8822 16.9726 Z" stroke-linecap="round"/>
</g>
</g>
</g>
</svg>