<svg xmlns="http://www.w3.org/2000/svg" xmlns:xlink="http://www.w3.org/1999/xlink" version="1.1" width="47" height="47" viewBox="0 0 1000 1000" xml:space="preserve">
<desc>Created with Fabric.js 3.5.0</desc>
<defs>
</defs>
<rect x="0" y="0" width="100%" height="100%" fill="#ffffff"/>
<g transform="matrix(19.3424 0 0 19.3424 500.0009 500.0009)" id="446145">
<circle style="stroke: none; stroke-width: 1; stroke-dasharray: none; stroke-linecap: butt; stroke-dashoffset: 0; stroke-linejoin: miter; stroke-miterlimit: 4; is-custom-font: none; font-file-url: none; fill: rgb(251,241,255); fill-rule: nonzero; opacity: 1;" vector-effect="non-scaling-stroke" cx="0" cy="0" r="23.5"/>
</g>
<g transform="matrix(21.5475 0 0 21.5475 499.9995 499.9996)" id="794517">
<path style="stroke: none; stroke-width: 1; stroke-dasharray: none; stroke-linecap: butt; stroke-dashoffset: 0; stroke-linejoin: miter; stroke-miterlimit: 4; is-custom-font: none; font-file-url: none; fill: rgb(245,18,100); fill-rule: nonzero; opacity: 1;" vector-effect="non-scaling-stroke" transform=" translate(-11.5, -10)" d="M 11.5 20 C 11.1726 20 10.8569 19.8841 10.6109 19.6734 C 9.68172 18.8794 8.78591 18.1331 7.99557 17.4749 L 7.99153 17.4714 C 5.67437 15.5415 3.67342 13.8747 2.28119 12.2329 C 0.724892 10.3974 0 8.65708 0 6.75591 C 0 4.90876 0.648033 3.20464 1.8246 1.95726 C 3.01521 0.695126 4.64889 0 6.42523 0 C 7.75288 0 8.96876 0.410249 10.039 1.21926 C 10.5791 1.62762 11.0687 2.1274 11.5 2.71036 C 11.9315 2.1274 12.4209 1.62762 12.9612 1.21926 C 14.0314 0.410249 15.2473 0 16.5749 0 C 18.3511 0 19.985 0.695126 21.1756 1.95726 C 22.3521 3.20464 23 4.90876 23 6.75591 C 23 8.65708 22.2753 10.3974 20.719 12.2327 C 19.3268 13.8747 17.326 15.5413 15.0092 17.4711 C 14.2174 18.1304 13.3202 18.8778 12.389 19.6738 C 12.1431 19.8841 11.8273 20 11.5 20 Z M 6.42523 1.31685 C 5.02967 1.31685 3.74764 1.86121 2.81499 2.84979 C 1.86847 3.85329 1.34713 5.24046 1.34713 6.75591 C 1.34713 8.35489 1.95515 9.78493 3.31843 11.3927 C 4.63608 12.9467 6.59597 14.5791 8.86523 16.4693 L 8.86944 16.4727 C 9.66277 17.1336 10.5621 17.8827 11.4981 18.6826 C 12.4397 17.8812 13.3404 17.1308 14.1353 16.469 C 16.4044 14.5788 18.3641 12.9467 19.6817 11.3927 C 21.0448 9.78493 21.6529 8.35489 21.6529 6.75591 C 21.6529 5.24046 21.1315 3.85329 20.185 2.84979 C 19.2525 1.86121 17.9703 1.31685 16.5749 1.31685 C 15.5526 1.31685 14.614 1.63448 13.7852 2.26083 C 13.0466 2.81926 12.5322 3.52519 12.2305 4.01914 C 12.0754 4.27315 11.8023 4.42476 11.5 4.42476 C 11.1977 4.42476 10.9246 4.27315 10.7695 4.01914 C 10.468 3.52519 9.95353 2.81926 9.21478 2.26083 C 8.386 1.63448 7.44738 1.31685 6.42523 1.31685 Z" stroke-linecap="round"/>
</g>
</svg>